<?xml version="1.0" standalone="no"?>
<!DOCTYPE svg PUBLIC "-//W3C//DTD SVG 20010904//EN"
 "http://www.w3.org/TR/2001/REC-SVG-20010904/DTD/svg10.dtd">
<svg version="1.0" xmlns="http://www.w3.org/2000/svg"
 width="128.000000pt" height="128.000000pt" viewBox="0 0 128.000000 128.000000"
 preserveAspectRatio="xMidYMid meet">
<metadata>
Created by potrace 1.14, written by Peter Selinger 2001-2017
</metadata>
<g transform="translate(0.000000,128.000000) scale(0.100000,-0.100000)"
fill="#000000" stroke="none">
<path d="M205 1218 c-3 -7 -4 -269 -3 -583 l3 -570 28 -3 c15 -2 25 -7 22 -12
-3 -5 -1 -12 5 -15 6 -4 9 -1 8 6 -2 9 9 14 30 14 17 1 32 -4 32 -9 0 -8 3 -8
8 0 11 16 78 12 74 -4 -1 -8 2 -11 8 -7 6 3 8 11 5 16 -4 5 5 9 19 9 14 0 26
-5 26 -11 0 -5 -5 -7 -12 -3 -7 5 -8 3 -3 -6 6 -10 11 -9 21 4 11 16 13 16 24
-1 11 -17 11 -17 6 0 -5 14 -1 17 22 14 15 -3 26 -10 25 -16 -2 -6 2 -11 8
-11 6 0 9 7 5 15 -7 19 3 19 25 -1 13 -12 19 -12 25 -3 4 7 3 10 -4 5 -6 -3
-13 -2 -16 3 -10 15 89 7 110 -9 18 -14 18 -14 5 3 -12 15 -11 17 7 17 16 0
20 -5 16 -17 -4 -13 -3 -14 3 -5 14 19 65 26 74 10 5 -8 9 -8 9 -2 0 6 16 11
38 10 25 -1 36 -5 34 -14 -1 -8 2 -11 8 -7 6 3 8 11 5 16 -4 5 5 9 19 9 14 0
26 -5 26 -11 0 -5 -5 -7 -12 -3 -7 5 -8 3 -3 -6 6 -10 11 -10 20 3 9 13 25 16
67 13 49 -3 54 -1 57 18 6 45 5 1122 -2 1139 -6 16 -38 17 -437 17 -335 0
-432 -3 -435 -12z"/>
<path d="M655 40 c3 -5 8 -10 11 -10 2 0 4 5 4 10 0 6 -5 10 -11 10 -5 0 -7
-4 -4 -10z"/>
<path d="M975 40 c3 -5 8 -10 11 -10 2 0 4 5 4 10 0 6 -5 10 -11 10 -5 0 -7
-4 -4 -10z"/>
<path d="M1036 42 c-3 -5 1 -9 9 -9 8 0 12 4 9 9 -3 4 -7 8 -9 8 -2 0 -6 -4
-9 -8z"/>
</g>
</svg>
